<?xml version="1.0" standalone="no"?>
<!DOCTYPE svg PUBLIC "-//W3C//DTD SVG 20010904//EN"
 "http://www.w3.org/TR/2001/REC-SVG-20010904/DTD/svg10.dtd">
<svg version="1.0" xmlns="http://www.w3.org/2000/svg"
 width="48.000000pt" height="48.000000pt" viewBox="0 0 48.000000 48.000000"
 preserveAspectRatio="xMidYMid meet">

<g transform="translate(0.000000,48.000000) scale(0.100000,-0.100000)"
fill="#000000" stroke="none">
<path d="M175 425 c-52 -19 -111 -82 -125 -135 -20 -74 3 -144 64 -198 126
-110 320 -21 320 148 0 91 -56 165 -145 190 -44 13 -66 12 -114 -5z m65 -116
c8 0 28 3 43 7 20 5 33 1 47 -11 32 -29 24 -57 -35 -115 l-55 -54 -55 54 c-58
57 -66 81 -38 113 13 14 25 17 48 12 16 -3 37 -6 45 -6z"/>
</g>
</svg>
