<?xml version="1.0" standalone="no"?>
<!DOCTYPE svg PUBLIC "-//W3C//DTD SVG 20010904//EN"
 "http://www.w3.org/TR/2001/REC-SVG-20010904/DTD/svg10.dtd">
<svg version="1.0" xmlns="http://www.w3.org/2000/svg"
 width="750.000000pt" height="750.000000pt" viewBox="0 0 750.000000 750.000000"
 preserveAspectRatio="xMidYMid meet">

<g transform="translate(0.000000,750.000000) scale(0.100000,-0.100000)"
fill="#000000" stroke="none">
<path d="M4765 6163 c-260 -35 -426 -149 -602 -410 -261 -390 -467 -1217 -558
-2248 -9 -99 -18 -182 -21 -184 -2 -3 -19 2 -37 11 -29 14 -33 20 -30 49 21
236 45 478 49 495 5 17 -20 45 -129 146 -351 326 -699 552 -913 594 -411 79
-687 -60 -760 -385 -14 -62 -18 -69 -33 -61 -10 5 -23 16 -31 24 -16 20 -30
20 -30 2 0 -8 15 -27 34 -43 32 -27 34 -31 38 -113 5 -66 14 -104 42 -174 20
-49 34 -91 32 -93 -2 -3 -33 19 -68 47 -100 81 -174 113 -273 118 -99 5 -135
-5 -221 -64 -35 -24 -70 -44 -78 -44 -37 0 -214 -53 -271 -81 -112 -55 -184
-153 -192 -264 -10 -117 29 -193 122 -240 53 -27 70 -30 150 -30 105 0 139 14
334 135 62 38 136 77 164 85 46 14 137 21 137 11 0 -2 -35 -37 -77 -77 -296
-278 -446 -469 -502 -636 -57 -169 0 -357 157 -524 88 -93 175 -160 299 -227
51 -28 129 -78 174 -111 45 -34 103 -73 129 -86 27 -14 51 -29 54 -33 3 -5
-35 -12 -84 -16 -157 -12 -151 -26 10 -24 120 2 156 -1 207 -17 l62 -20 -42
-20 c-45 -22 -59 -53 -36 -81 37 -45 299 -142 456 -169 227 -39 438 -41 1013
-9 308 16 703 18 875 4 151 -13 211 -21 515 -72 219 -36 257 -40 355 -35 276
15 668 137 739 230 59 77 17 131 -118 156 -53 10 -288 28 -431 34 -46 1 -61 6
-63 18 -3 14 12 18 90 23 251 18 512 27 921 33 319 4 447 9 444 17 -4 11 -82
21 -259 32 l-97 6 81 101 c169 212 287 416 303 528 13 89 -34 182 -98 194 -19
4 -50 0 -76 -9 -24 -9 -45 -16 -46 -16 -2 0 14 42 35 93 84 207 140 420 140
536 0 143 -93 260 -187 236 -45 -11 -107 -84 -141 -167 -40 -96 -86 -277 -114
-450 -13 -76 -25 -138 -28 -138 -4 0 -11 26 -18 59 -18 85 -70 182 -110 205
-30 16 -38 17 -75 6 -63 -18 -121 -84 -147 -167 -18 -55 -22 -93 -22 -198 1
-187 42 -407 135 -711 l34 -111 -121 -7 c-67 -3 -189 -9 -272 -12 l-151 -7
-12 90 c-15 121 -14 314 3 394 19 90 56 159 125 232 259 279 505 774 622 1252
71 293 93 629 54 850 -79 458 -300 717 -839 987 -244 122 -273 149 -336 314
-40 105 -80 167 -127 198 -57 38 -155 53 -258 39z m1079 -969 c22 -22 22 -22
-18 -116 -26 -61 0 -44 48 31 49 75 81 96 103 65 17 -23 16 -38 -1 -72 -7 -15
-17 -47 -21 -72 -26 -161 -95 -182 -231 -68 -72 60 -74 63 -50 71 16 5 37 30
57 65 31 57 76 112 90 112 4 0 15 -7 23 -16z m-202 -201 c82 -67 168 -146 168
-154 0 -15 -33 -10 -86 15 -32 15 -67 43 -94 75 -29 34 -49 50 -59 46 -10 -4
-9 1 5 16 10 12 13 19 7 15 -7 -4 -13 -2 -13 3 0 20 38 11 72 -16z m-3764
-875 c7 -7 12 -23 12 -36 l0 -25 -20 26 c-30 37 -23 66 8 35z m347 -148 c17
-33 39 -175 33 -211 -4 -19 -11 -10 -37 46 -35 76 -64 172 -55 186 12 19 44 8
59 -21z m-201 -37 c14 -20 24 -39 21 -41 -10 -10 -70 36 -73 56 -5 35 24 27
52 -15z m-446 -55 c71 -26 157 -93 322 -248 74 -71 158 -147 185 -170 103 -85
260 -141 499 -176 l115 -17 -27 -39 -27 -39 -135 6 c-390 17 -493 45 -676 184
-119 91 -146 103 -230 109 -97 6 -169 -19 -325 -115 -165 -101 -192 -113 -264
-113 -64 0 -145 30 -177 66 -32 36 -59 112 -59 167 -2 132 106 223 333 280 72
18 116 37 169 71 40 25 88 48 108 52 20 3 41 7 46 8 20 6 92 -7 143 -26z m827
-115 c26 -25 36 -61 42 -150 8 -114 -22 -108 -60 12 -40 124 -31 188 18 138z
m-190 -83 c26 -27 27 -30 10 -30 -33 0 -99 21 -117 38 -30 26 -21 35 29 28 34
-4 56 -15 78 -36z m3171 -122 c105 -109 167 -194 224 -304 70 -136 85 -199 84
-354 0 -119 -3 -144 -27 -215 -49 -147 -152 -292 -273 -384 -85 -64 -277 -160
-404 -200 -179 -58 -454 -111 -473 -92 -5 5 -10 43 -11 84 -1 74 0 77 41 134
76 103 96 150 101 235 4 69 2 84 -23 133 -18 37 -47 72 -88 108 -187 159 -201
186 -146 294 l33 65 75 -8 c106 -10 116 -10 119 1 4 13 -71 26 -131 23 -26 -2
-47 -1 -47 2 0 9 104 166 135 206 26 32 30 47 33 111 3 40 -1 94 -7 120 -7 25
-9 48 -7 51 16 16 93 -87 121 -160 13 -35 23 -48 38 -48 16 0 19 5 14 29 l-6
29 77 9 c156 16 282 2 358 -41 31 -17 39 -28 39 -51 0 -37 20 -43 51 -14 49
46 52 106 14 257 -10 39 -15 72 -10 72 4 0 47 -42 96 -92z m1250 -97 c118 -72
87 -366 -82 -769 -24 -58 -42 -107 -40 -109 2 -2 28 6 57 17 125 50 179 25
179 -80 0 -125 -94 -300 -305 -565 -108 -135 -89 -125 -224 -125 l-118 0 -33
122 c-36 137 -81 361 -104 519 -37 249 -6 427 83 486 48 33 74 29 110 -13 35
-44 64 -144 86 -299 24 -170 46 -170 70 0 67 481 151 760 244 818 33 21 40 21
77 -2z m-3304 -81 c36 -11 150 -58 254 -104 275 -122 270 -121 519 -120 206 1
222 3 354 40 21 6 19 1 -20 -59 -43 -65 -45 -67 -89 -68 -44 -2 -44 -2 -7 -6
20 -2 37 -6 37 -8 0 -1 -13 -29 -30 -60 -16 -31 -30 -70 -30 -86 0 -66 62
-142 185 -226 81 -55 93 -70 106 -136 20 -100 -9 -189 -103 -314 l-40 -53 4
-97 c5 -112 29 -183 104 -303 24 -40 44 -73 44 -75 0 -2 -10 -5 -22 -7 -13 -2
-23 -9 -23 -17 0 -10 22 -18 73 -27 78 -13 112 -34 111 -68 0 -12 -3 -15 -6
-8 -6 16 -58 43 -67 35 -3 -4 8 -18 26 -33 21 -18 29 -32 25 -43 -5 -15 -9
-14 -31 8 -24 23 -56 34 -56 18 0 -4 12 -17 28 -30 l27 -22 -63 -1 c-76 0
-126 19 -145 57 -8 15 -25 61 -37 101 -39 134 -110 257 -221 383 -62 70 -111
135 -125 168 -33 73 -66 115 -104 131 -26 11 -36 10 -70 -5 -56 -25 -79 -53
-26 -31 21 9 50 16 64 16 36 0 82 -55 114 -136 19 -48 47 -91 90 -139 l62 -70
-130 -3 c-260 -6 -666 35 -876 89 l-38 10 40 50 c46 59 57 102 37 150 -18 44
-90 115 -123 123 -40 10 -39 1 1 -24 50 -31 95 -95 95 -134 -1 -46 -31 -104
-87 -166 -59 -65 -73 -89 -73 -127 0 -48 39 -147 90 -232 l47 -80 -26 -3 c-15
-2 -26 -9 -26 -18 0 -12 12 -14 58 -12 59 2 127 -18 127 -38 0 -7 -9 -5 -22 4
-28 20 -38 20 -38 2 0 -7 9 -16 20 -19 20 -5 37 -33 27 -44 -3 -3 -18 4 -33
16 -15 11 -33 21 -40 21 -23 0 -15 -20 12 -30 36 -14 24 -35 -18 -34 -43 1
-144 41 -177 69 -35 30 -88 142 -142 301 -26 78 -71 184 -98 236 -55 101 -60
130 -36 197 16 47 4 46 -25 -2 l-19 -31 -69 71 c-51 52 -82 94 -113 157 -40
81 -43 92 -47 189 -14 321 157 622 400 703 116 38 274 40 390 4z m-1154 -900
c35 -33 54 -78 47 -112 -7 -30 -7 -30 -30 27 -13 31 -31 65 -39 74 -31 34 -13
43 22 11z m-52 -27 c22 -24 64 -135 64 -170 0 -8 5 -23 11 -34 15 -29 39 -6
39 38 0 37 19 37 21 0 0 -12 6 1 13 28 14 56 23 75 37 75 21 0 88 -74 110
-123 21 -47 24 -66 24 -192 0 -149 -20 -295 -40 -295 -6 0 -59 31 -117 69
-159 106 -239 204 -254 314 -9 63 6 62 73 -4 36 -35 58 -49 69 -45 14 5 13 11
-10 40 -32 42 -34 56 -4 30 16 -14 14 -8 -9 26 -75 111 -111 221 -83 255 17
21 27 19 56 -12z m317 -105 c43 -58 60 -123 65 -260 4 -111 -4 -214 -25 -318
l-5 -25 244 1 243 1 -305 -7 c-168 -4 -307 -6 -309 -4 -2 2 25 4 60 4 41 0 59
4 50 9 -12 8 -11 25 4 117 39 236 16 404 -67 499 -42 47 -42 47 -10 31 17 -9
42 -31 55 -48z m2501 -342 c8 -39 83 -146 125 -175 15 -11 55 -26 90 -34 68
-16 111 -48 110 -81 0 -12 -3 -15 -6 -8 -6 16 -58 43 -67 35 -3 -4 8 -19 26
-33 31 -26 31 -28 11 -34 -15 -5 -28 0 -47 19 -25 25 -56 34 -56 15 0 -5 9
-14 20 -20 57 -30 -42 -34 -102 -4 -15 8 -62 57 -104 110 -43 53 -106 119
-141 147 -35 29 -59 53 -53 55 26 9 156 40 171 41 11 1 19 -10 23 -33z m-1541
-22 l107 -18 0 -37 c0 -47 25 -117 51 -145 11 -12 36 -24 56 -27 35 -6 73 -31
73 -49 0 -5 -12 0 -26 11 -27 21 -54 28 -54 13 0 -5 11 -14 25 -20 14 -6 25
-16 25 -22 0 -15 -9 -12 -37 10 -26 20 -63 27 -63 12 0 -5 12 -15 28 -22 l27
-14 -27 -4 c-34 -4 -94 12 -135 37 -22 14 -42 42 -66 93 -18 40 -60 104 -92
142 -57 67 -58 69 -29 64 16 -3 77 -13 137 -24z m-70 -241 c-23 -2 -64 -2 -90
0 -26 2 -7 3 42 3 50 0 71 -1 48 -3z m1608 -10 c13 -15 10 -16 -41 -10 -30 4
-100 8 -155 8 -129 2 -66 16 81 18 84 1 104 -2 115 -16z m-2633 -10 c-10 -2
-26 -2 -35 0 -10 3 -2 5 17 5 19 0 27 -2 18 -5z m-81 -9 c-3 -3 -12 -4 -19 -1
-8 3 -5 6 6 6 11 1 17 -2 13 -5z m757 -75 c12 -67 136 -161 250 -190 39 -10
54 -9 90 5 125 48 107 165 -29 194 -22 4 -44 17 -53 30 l-14 22 85 0 c75 0 91
-3 123 -25 91 -62 246 -59 286 4 13 21 20 21 350 21 l336 0 22 -67 c44 -134
81 -163 211 -163 108 0 159 36 159 113 0 29 -7 46 -29 68 l-29 29 118 0 c107
0 122 -2 161 -25 59 -33 193 -36 253 -5 37 18 49 19 220 10 269 -15 389 -35
410 -68 23 -37 -145 -137 -341 -202 -275 -91 -414 -97 -728 -33 -466 97 -749
109 -1505 67 -376 -21 -705 -15 -880 15 -133 24 -421 113 -441 137 -28 34 39
60 231 90 126 20 721 35 731 19 4 -5 9 -26 13 -46z"/>
<path d="M4676 3234 c-34 -33 -28 -134 9 -148 38 -14 68 68 45 123 -14 36 -34
45 -54 25z"/>
<path d="M5090 3210 c-13 -13 -20 -33 -20 -61 0 -53 15 -79 45 -79 30 0 45 26
45 77 0 38 -22 83 -41 83 -5 0 -18 -9 -29 -20z"/>
<path d="M5093 3013 c-7 -2 -13 -11 -13 -20 0 -10 6 -12 22 -8 52 17 96 8 231
-50 61 -25 33 1 -46 45 -60 33 -81 40 -127 39 -30 0 -61 -3 -67 -6z"/>
<path d="M4507 2984 c-37 -20 -30 -26 14 -14 19 6 56 8 83 4 38 -5 47 -3 44 7
-7 21 -106 22 -141 3z"/>
<path d="M5095 2950 c-4 -6 5 -10 20 -10 45 0 90 -26 130 -74 44 -54 58 -54
25 0 -40 64 -154 119 -175 84z"/>
<path d="M4800 2900 c-19 -36 4 -170 41 -241 18 -33 34 -57 36 -55 3 3 -5 31
-18 63 -17 44 -23 80 -24 152 -1 97 -13 123 -35 81z"/>
</g>
</svg>
